# MagicaVoxel @ Ephtracy

# group
o 

# material
mtllib Player.mtl
usemtl palette

# normals
vn -1 0 0
vn 1 0 0
vn 0 0 1
vn 0 0 -1
vn 0 -1 0
vn 0 1 0

# texcoords
vt 0.0566406 0.5
vt 0.146484 0.5
vt 0.224609 0.5
vt 0.255859 0.5
vt 0.478516 0.5
vt 0.482422 0.5
vt 0.572266 0.5
vt 0.728516 0.5
vt 0.751953 0.5
vt 0.755859 0.5
vt 0.763672 0.5
vt 0.791016 0.5
vt 0.853516 0.5
vt 0.904297 0.5
vt 0.916016 0.5
vt 0.955078 0.5
vt 0.962891 0.5
vt 0.982422 0.5
vt 0.986328 0.5
vt 0.990234 0.5

# verts
v -0.6 0 0.3
v -0.6 0 -0.1
v -0.6 0.1 0.3
v -0.6 0.1 -0.1
v -0.6 0.7 0.2
v -0.6 0.7 -0.3
v -0.6 0.8 0.1
v -0.6 0.8 -0.2
v -0.6 1.2 0.1
v -0.6 1.2 -0.2
v -0.6 1.3 0.2
v -0.6 1.3 -0.3
v -0.5 0 0.4
v -0.5 0 0.3
v -0.5 0 -0.1
v -0.5 0 -0.2
v -0.5 0.1 0.4
v -0.5 0.1 0.3
v -0.5 0.1 0.2
v -0.5 0.1 -0.1
v -0.5 0.1 -0.2
v -0.5 0.2 0.3
v -0.5 0.2 0.2
v -0.5 0.2 -0.1
v -0.5 0.2 -0.2
v -0.5 0.3 0.2
v -0.5 0.3 -0.1
v -0.5 0.6 0.3
v -0.5 0.6 0.2
v -0.5 0.6 -0.4
v -0.5 0.7 0.2
v -0.5 0.7 -0.3
v -0.5 1.3 0.2
v -0.5 1.3 -0.3
v -0.5 1.4 0.3
v -0.5 1.4 0.2
v -0.5 1.4 -0.4
v -0.4 0.2 -0.1
v -0.4 0.2 -0.2
v -0.4 0.3 0.1
v -0.4 0.3 -0.1
v -0.4 0.3 -0.2
v -0.4 0.4 0.1
v -0.4 0.4 -0.2
v -0.4 0.7 0.4
v -0.4 0.7 0.3
v -0.4 0.9 0.4
v -0.4 0.9 0.3
v -0.4 1 0.4
v -0.4 1 0.3
v -0.4 1.3 0.4
v -0.4 1.3 0.3
v -0.3 0.4 0.1
v -0.3 0.4 -0.2
v -0.3 0.6 0.1
v -0.3 0.6 -0.2
v -0.3 1.5 0
v -0.3 1.5 -0.1
v -0.3 1.6 0
v -0.3 1.6 -0.1
v -0.2 1.4 0
v -0.2 1.4 -0.1
v -0.2 1.5 0
v -0.2 1.5 -0.1
v -0.1 0.1 -0.4
v -0.1 0.1 -0.6
v -0.1 0.1 -0.7
v -0.1 0.2 -0.5
v -0.1 0.2 -0.6
v -0.1 0.2 -0.7
v -0.1 0.3 -0.4
v -0.1 0.3 -0.5
v -0.1 0.4 -0.3
v -0.1 0.4 -0.4
v -0.1 0.5 -0.2
v -0.1 0.5 -0.3
v -0.1 0.6 -0.2
v -0.1 0.6 -0.3
v -0.1 0.6 -0.4
v 0 0.1 -0.7
v 0 0.1 -0.8
v 0 0.2 -0.7
v 0 0.3 -0.3
v 0 0.3 -0.4
v 0 0.3 -0.5
v 0 0.3 -0.7
v 0 0.3 -0.8
v 0 0.4 -0.3
v 0 0.4 -0.4
v 0 0.4 -0.5
v 0.1 0.3 0.1
v 0.1 0.3 -0.2
v 0.1 0.4 0.1
v 0.1 0.4 -0.2
v 0.1 1.4 0
v 0.1 1.4 -0.1
v 0.1 1.5 0
v 0.1 1.5 -0.1
v 0.2 0 0.4
v 0.2 0 -0.2
v 0.2 0.1 0.4
v 0.2 0.1 0.3
v 0.2 0.1 0.2
v 0.2 0.1 -0.2
v 0.2 0.2 0.3
v 0.2 0.2 0.2
v 0.2 0.3 0.2
v 0.2 0.3 0.1
v 0.2 0.3 -0.2
v -0.2 0 0.4
v -0.2 0 -0.2
v -0.2 0.1 0.4
v -0.2 0.1 0.3
v -0.2 0.1 0.2
v -0.2 0.1 -0.2
v -0.2 0.2 0.3
v -0.2 0.2 0.2
v -0.2 0.3 0.2
v -0.2 0.3 0.1
v -0.2 0.3 -0.2
v -0.1 0.3 0.1
v -0.1 0.3 -0.2
v -0.1 0.4 0.1
v -0.1 0.4 -0.2
v -0.1 1.4 0
v -0.1 1.4 -0.1
v -0.1 1.6 0
v -0.1 1.6 -0.1
v 0 0.1 -0.4
v 0 0.1 -0.6
v 0 0.2 -0.4
v 0 0.2 -0.5
v 0 0.2 -0.6
v 0 0.5 -0.2
v 0 0.5 -0.3
v 0 0.5 -0.4
v 0 0.6 -0.2
v 0 0.6 -0.3
v 0 0.6 -0.4
v 0.1 0.1 -0.6
v 0.1 0.1 -0.8
v 0.1 0.2 -0.4
v 0.1 0.2 -0.5
v 0.1 0.2 -0.6
v 0.1 0.2 -0.7
v 0.1 0.3 -0.3
v 0.1 0.3 -0.4
v 0.1 0.3 -0.7
v 0.1 0.3 -0.8
v 0.1 0.4 -0.4
v 0.1 0.4 -0.5
v 0.1 0.5 -0.3
v 0.1 0.5 -0.4
v 0.2 1.4 0
v 0.2 1.4 -0.1
v 0.2 1.5 0
v 0.2 1.5 -0.1
v 0.3 0.4 0.1
v 0.3 0.4 -0.2
v 0.3 0.6 0.1
v 0.3 0.6 -0.2
v 0.4 0.2 -0.1
v 0.4 0.2 -0.2
v 0.4 0.3 0.1
v 0.4 0.3 -0.1
v 0.4 0.3 -0.2
v 0.4 0.4 0.1
v 0.4 0.4 -0.2
v 0.4 0.7 0.4
v 0.4 0.7 0.3
v 0.4 0.9 0.4
v 0.4 0.9 0.3
v 0.4 1 0.4
v 0.4 1 0.3
v 0.4 1.3 0.4
v 0.4 1.3 0.3
v 0.5 0 0.4
v 0.5 0 0.3
v 0.5 0 -0.1
v 0.5 0 -0.2
v 0.5 0.1 0.4
v 0.5 0.1 0.3
v 0.5 0.1 0.2
v 0.5 0.1 -0.1
v 0.5 0.1 -0.2
v 0.5 0.2 0.3
v 0.5 0.2 0.2
v 0.5 0.2 -0.1
v 0.5 0.2 -0.2
v 0.5 0.3 0.2
v 0.5 0.3 -0.1
v 0.5 0.6 0.3
v 0.5 0.6 0.2
v 0.5 0.6 -0.4
v 0.5 0.7 0.2
v 0.5 0.7 -0.3
v 0.5 1.3 0.2
v 0.5 1.3 -0.3
v 0.5 1.4 0.3
v 0.5 1.4 0.2
v 0.5 1.4 -0.4
v 0.6 0 0.3
v 0.6 0 -0.1
v 0.6 0.1 0.3
v 0.6 0.1 -0.1
v 0.6 0.7 0.2
v 0.6 0.7 -0.3
v 0.6 0.8 0.1
v 0.6 0.8 -0.2
v 0.6 1.2 0.1
v 0.6 1.2 -0.2
v 0.6 1.3 0.2
v 0.6 1.3 -0.3
v -0.5 0 0.4
v -0.5 0.1 0.4
v -0.4 0.7 0.4
v -0.4 0.9 0.4
v -0.4 1 0.4
v -0.4 1.3 0.4
v -0.3 0.7 0.4
v -0.3 0.9 0.4
v -0.3 1 0.4
v -0.3 1.3 0.4
v -0.2 0 0.4
v -0.2 0.1 0.4
v -0.2 0.9 0.4
v -0.2 1 0.4
v -0.2 1.3 0.4
v -0.1 0.7 0.4
v -0.1 0.9 0.4
v -0.1 1 0.4
v -0.1 1.3 0.4
v 0 0.9 0.4
v 0 1 0.4
v 0 1.3 0.4
v 0.1 0.7 0.4
v 0.1 0.9 0.4
v 0.1 1 0.4
v 0.1 1.3 0.4
v 0.2 0 0.4
v 0.2 0.1 0.4
v 0.2 0.9 0.4
v 0.2 1 0.4
v 0.2 1.3 0.4
v 0.3 0.7 0.4
v 0.3 0.9 0.4
v 0.3 1 0.4
v 0.3 1.3 0.4
v 0.4 0.7 0.4
v 0.4 0.9 0.4
v 0.4 1 0.4
v 0.4 1.3 0.4
v 0.5 0 0.4
v 0.5 0.1 0.4
v -0.6 0 0.3
v -0.6 0.1 0.3
v -0.5 0 0.3
v -0.5 0.1 0.3
v -0.5 0.2 0.3
v -0.5 0.6 0.3
v -0.5 1.4 0.3
v -0.4 0.1 0.3
v -0.4 0.2 0.3
v -0.4 0.7 0.3
v -0.4 0.9 0.3
v -0.4 1 0.3
v -0.4 1.3 0.3
v -0.3 0.1 0.3
v -0.3 0.2 0.3
v -0.3 0.7 0.3
v -0.3 1.3 0.3
v -0.2 0.1 0.3
v -0.2 0.2 0.3
v -0.2 1.3 0.3
v -0.1 0.7 0.3
v -0.1 1.3 0.3
v 0 1.3 0.3
v 0.1 0.7 0.3
v 0.1 1.3 0.3
v 0.2 0.1 0.3
v 0.2 0.2 0.3
v 0.2 1.3 0.3
v 0.3 0.1 0.3
v 0.3 0.2 0.3
v 0.3 0.7 0.3
v 0.3 1.3 0.3
v 0.4 0.1 0.3
v 0.4 0.2 0.3
v 0.4 0.7 0.3
v 0.4 0.9 0.3
v 0.4 1 0.3
v 0.4 1.3 0.3
v 0.5 0 0.3
v 0.5 0.1 0.3
v 0.5 0.2 0.3
v 0.5 0.6 0.3
v 0.5 1.4 0.3
v 0.6 0 0.3
v 0.6 0.1 0.3
v -0.6 0.7 0.2
v -0.6 1.3 0.2
v -0.5 0.2 0.2
v -0.5 0.3 0.2
v -0.5 0.7 0.2
v -0.5 1.3 0.2
v -0.4 0.2 0.2
v -0.3 0.2 0.2
v -0.2 0.2 0.2
v -0.2 0.3 0.2
v 0.2 0.2 0.2
v 0.2 0.3 0.2
v 0.3 0.2 0.2
v 0.4 0.2 0.2
v 0.5 0.2 0.2
v 0.5 0.3 0.2
v 0.5 0.7 0.2
v 0.5 1.3 0.2
v 0.6 0.7 0.2
v 0.6 1.3 0.2
v -0.4 0.3 0.1
v -0.4 0.4 0.1
v -0.3 0.4 0.1
v -0.3 0.6 0.1
v -0.2 0.3 0.1
v -0.1 0.3 0.1
v -0.1 0.4 0.1
v -0.1 0.5 0.1
v -0.1 0.6 0.1
v 0.1 0.3 0.1
v 0.1 0.4 0.1
v 0.1 0.5 0.1
v 0.1 0.6 0.1
v 0.2 0.3 0.1
v 0.3 0.4 0.1
v 0.3 0.6 0.1
v 0.4 0.3 0.1
v 0.4 0.4 0.1
v -0.3 1.5 0
v -0.3 1.6 0
v -0.2 1.4 0
v -0.2 1.5 0
v -0.1 1.4 0
v -0.1 1.6 0
v 0.1 1.4 0
v 0.1 1.5 0
v 0.2 1.4 0
v 0.2 1.5 0
v -0.1 0.4 -0.3
v -0.1 0.5 -0.3
v 0 0.3 -0.3
v 0 0.4 -0.3
v 0 0.5 -0.3
v 0.1 0.3 -0.3
v 0.1 0.5 -0.3
v -0.1 0.1 -0.4
v -0.1 0.3 -0.4
v 0 0.1 -0.4
v 0 0.2 -0.4
v 0 0.3 -0.4
v 0.1 0.2 -0.4
v 0.1 0.3 -0.4
v 0 0.1 -0.6
v 0 0.2 -0.6
v 0.1 0.1 -0.6
v 0.1 0.2 -0.6
v 0 0.2 -0.7
v 0 0.3 -0.7
v 0.1 0.2 -0.7
v 0.1 0.3 -0.7
v -0.6 0 -0.1
v -0.6 0.1 -0.1
v -0.5 0 -0.1
v -0.5 0.1 -0.1
v -0.5 0.2 -0.1
v -0.5 0.3 -0.1
v -0.4 0.2 -0.1
v -0.4 0.3 -0.1
v -0.3 1.5 -0.1
v -0.3 1.6 -0.1
v -0.2 1.4 -0.1
v -0.2 1.5 -0.1
v -0.1 1.4 -0.1
v -0.1 1.6 -0.1
v 0.1 1.4 -0.1
v 0.1 1.5 -0.1
v 0.2 1.4 -0.1
v 0.2 1.5 -0.1
v 0.4 0.2 -0.1
v 0.4 0.3 -0.1
v 0.5 0 -0.1
v 0.5 0.1 -0.1
v 0.5 0.2 -0.1
v 0.5 0.3 -0.1
v 0.6 0 -0.1
v 0.6 0.1 -0.1
v -0.5 0 -0.2
v -0.5 0.1 -0.2
v -0.5 0.2 -0.2
v -0.4 0.2 -0.2
v -0.4 0.3 -0.2
v -0.4 0.4 -0.2
v -0.3 0.4 -0.2
v -0.3 0.6 -0.2
v -0.2 0 -0.2
v -0.2 0.1 -0.2
v -0.2 0.3 -0.2
v -0.1 0.3 -0.2
v -0.1 0.4 -0.2
v -0.1 0.5 -0.2
v -0.1 0.6 -0.2
v 0 0.5 -0.2
v 0 0.6 -0.2
v 0.1 0.3 -0.2
v 0.1 0.4 -0.2
v 0.2 0 -0.2
v 0.2 0.1 -0.2
v 0.2 0.3 -0.2
v 0.3 0.4 -0.2
v 0.3 0.6 -0.2
v 0.4 0.2 -0.2
v 0.4 0.3 -0.2
v 0.4 0.4 -0.2
v 0.5 0 -0.2
v 0.5 0.1 -0.2
v 0.5 0.2 -0.2
v -0.6 0.7 -0.3
v -0.6 1.3 -0.3
v -0.5 0.7 -0.3
v -0.5 1.3 -0.3
v 0.5 0.7 -0.3
v 0.5 1.3 -0.3
v 0.6 0.7 -0.3
v 0.6 1.3 -0.3
v -0.5 0.6 -0.4
v -0.5 1.4 -0.4
v -0.4 0.6 -0.4
v -0.4 0.7 -0.4
v -0.4 0.8 -0.4
v -0.4 0.9 -0.4
v -0.4 1 -0.4
v -0.4 1.1 -0.4
v -0.4 1.2 -0.4
v -0.4 1.3 -0.4
v -0.1 0.4 -0.4
v -0.1 0.6 -0.4
v 0 0.4 -0.4
v 0 0.5 -0.4
v 0 0.6 -0.4
v 0.1 0.4 -0.4
v 0.1 0.5 -0.4
v 0.4 0.6 -0.4
v 0.4 0.7 -0.4
v 0.4 0.8 -0.4
v 0.4 0.9 -0.4
v 0.4 1 -0.4
v 0.4 1.1 -0.4
v 0.4 1.2 -0.4
v 0.4 1.3 -0.4
v 0.5 0.6 -0.4
v 0.5 1.4 -0.4
v -0.1 0.2 -0.5
v -0.1 0.3 -0.5
v 0 0.2 -0.5
v 0 0.3 -0.5
v 0 0.4 -0.5
v 0.1 0.2 -0.5
v 0.1 0.4 -0.5
v -0.1 0.1 -0.7
v -0.1 0.2 -0.7
v 0 0.1 -0.7
v 0 0.2 -0.7
v 0 0.1 -0.8
v 0 0.3 -0.8
v 0.1 0.1 -0.8
v 0.1 0.3 -0.8
v -0.5 0 0.4
v -0.2 0 0.4
v 0.2 0 0.4
v 0.5 0 0.4
v -0.6 0 0.3
v -0.5 0 0.3
v 0.5 0 0.3
v 0.6 0 0.3
v -0.6 0 -0.1
v -0.5 0 -0.1
v 0.5 0 -0.1
v 0.6 0 -0.1
v -0.5 0 -0.2
v -0.2 0 -0.2
v 0.2 0 -0.2
v 0.5 0 -0.2
v -0.1 0.1 -0.4
v 0 0.1 -0.4
v -0.1 0.1 -0.6
v 0 0.1 -0.6
v 0.1 0.1 -0.6
v -0.1 0.1 -0.7
v 0 0.1 -0.7
v 0 0.1 -0.8
v 0.1 0.1 -0.8
v 0 0.2 -0.4
v 0.1 0.2 -0.4
v 0 0.2 -0.5
v 0.1 0.2 -0.5
v -0.2 0.3 0.1
v -0.1 0.3 0.1
v 0.1 0.3 0.1
v 0.2 0.3 0.1
v -0.2 0.3 -0.2
v -0.1 0.3 -0.2
v 0.1 0.3 -0.2
v 0.2 0.3 -0.2
v 0 0.3 -0.3
v 0.1 0.3 -0.3
v 0 0.3 -0.4
v 0.1 0.3 -0.4
v -0.1 0.4 0.1
v 0.1 0.4 0.1
v -0.1 0.4 -0.2
v 0.1 0.4 -0.2
v -0.1 0.4 -0.3
v 0 0.4 -0.3
v -0.1 0.4 -0.4
v 0 0.4 -0.4
v -0.1 0.5 -0.2
v 0 0.5 -0.2
v -0.1 0.5 -0.3
v 0 0.5 -0.3
v -0.5 0.6 0.3
v 0.5 0.6 0.3
v -0.5 0.6 0.2
v 0.5 0.6 0.2
v -0.3 0.6 0.1
v -0.1 0.6 0.1
v 0.1 0.6 0.1
v 0.3 0.6 0.1
v -0.3 0.6 -0.2
v -0.1 0.6 -0.2
v 0 0.6 -0.2
v 0.3 0.6 -0.2
v -0.4 0.6 -0.3
v -0.1 0.6 -0.3
v 0 0.6 -0.3
v 0.4 0.6 -0.3
v -0.5 0.6 -0.4
v -0.4 0.6 -0.4
v -0.1 0.6 -0.4
v 0 0.6 -0.4
v 0.4 0.6 -0.4
v 0.5 0.6 -0.4
v -0.4 0.7 0.4
v -0.3 0.7 0.4
v -0.1 0.7 0.4
v 0.1 0.7 0.4
v 0.3 0.7 0.4
v 0.4 0.7 0.4
v -0.4 0.7 0.3
v -0.3 0.7 0.3
v -0.1 0.7 0.3
v 0.1 0.7 0.3
v 0.3 0.7 0.3
v 0.4 0.7 0.3
v -0.6 0.7 0.2
v -0.5 0.7 0.2
v 0.5 0.7 0.2
v 0.6 0.7 0.2
v -0.6 0.7 -0.3
v -0.5 0.7 -0.3
v 0.5 0.7 -0.3
v 0.6 0.7 -0.3
v -0.3 1.5 0
v -0.2 1.5 0
v -0.3 1.5 -0.1
v -0.2 1.5 -0.1
v -0.5 0.1 0.4
v -0.2 0.1 0.4
v 0.2 0.1 0.4
v 0.5 0.1 0.4
v -0.6 0.1 0.3
v -0.5 0.1 0.3
v -0.4 0.1 0.3
v -0.3 0.1 0.3
v -0.2 0.1 0.3
v 0.2 0.1 0.3
v 0.3 0.1 0.3
v 0.4 0.1 0.3
v 0.5 0.1 0.3
v 0.6 0.1 0.3
v -0.5 0.1 0.2
v 0.5 0.1 0.2
v -0.6 0.1 -0.1
v -0.5 0.1 -0.1
v 0.5 0.1 -0.1
v 0.6 0.1 -0.1
v -0.5 0.2 0.3
v -0.4 0.2 0.3
v -0.3 0.2 0.3
v -0.2 0.2 0.3
v 0.2 0.2 0.3
v 0.3 0.2 0.3
v 0.4 0.2 0.3
v 0.5 0.2 0.3
v -0.5 0.2 0.2
v -0.4 0.2 0.2
v -0.3 0.2 0.2
v -0.2 0.2 0.2
v 0.2 0.2 0.2
v 0.3 0.2 0.2
v 0.4 0.2 0.2
v 0.5 0.2 0.2
v -0.5 0.2 -0.1
v -0.4 0.2 -0.1
v 0.4 0.2 -0.1
v 0.5 0.2 -0.1
v -0.5 0.2 -0.2
v -0.4 0.2 -0.2
v 0.4 0.2 -0.2
v 0.5 0.2 -0.2
v -0.1 0.2 -0.5
v 0 0.2 -0.5
v -0.1 0.2 -0.6
v 0 0.2 -0.6
v 0.1 0.2 -0.6
v -0.1 0.2 -0.7
v 0 0.2 -0.7
v 0.1 0.2 -0.7
v -0.5 0.3 0.2
v -0.2 0.3 0.2
v 0.2 0.3 0.2
v 0.5 0.3 0.2
v -0.4 0.3 0.1
v -0.2 0.3 0.1
v 0.2 0.3 0.1
v 0.4 0.3 0.1
v -0.5 0.3 -0.1
v -0.4 0.3 -0.1
v 0.4 0.3 -0.1
v 0.5 0.3 -0.1
v -0.1 0.3 -0.4
v 0 0.3 -0.4
v -0.1 0.3 -0.5
v 0 0.3 -0.5
v 0 0.3 -0.7
v 0.1 0.3 -0.7
v 0 0.3 -0.8
v 0.1 0.3 -0.8
v -0.4 0.4 0.1
v -0.3 0.4 0.1
v 0.3 0.4 0.1
v 0.4 0.4 0.1
v -0.4 0.4 -0.2
v -0.3 0.4 -0.2
v 0.3 0.4 -0.2
v 0.4 0.4 -0.2
v 0 0.4 -0.4
v 0.1 0.4 -0.4
v 0 0.4 -0.5
v 0.1 0.4 -0.5
v 0 0.5 -0.3
v 0.1 0.5 -0.3
v 0 0.5 -0.4
v 0.1 0.5 -0.4
v -0.4 1.3 0.4
v -0.3 1.3 0.4
v -0.2 1.3 0.4
v -0.1 1.3 0.4
v 0 1.3 0.4
v 0.1 1.3 0.4
v 0.2 1.3 0.4
v 0.3 1.3 0.4
v 0.4 1.3 0.4
v -0.4 1.3 0.3
v -0.3 1.3 0.3
v -0.2 1.3 0.3
v -0.1 1.3 0.3
v 0 1.3 0.3
v 0.1 1.3 0.3
v 0.2 1.3 0.3
v 0.3 1.3 0.3
v 0.4 1.3 0.3
v -0.6 1.3 0.2
v -0.5 1.3 0.2
v 0.5 1.3 0.2
v 0.6 1.3 0.2
v -0.6 1.3 -0.3
v -0.5 1.3 -0.3
v 0.5 1.3 -0.3
v 0.6 1.3 -0.3
v -0.5 1.4 0.3
v 0.5 1.4 0.3
v -0.5 1.4 0.2
v 0.5 1.4 0.2
v -0.2 1.4 0
v -0.1 1.4 0
v 0.1 1.4 0
v 0.2 1.4 0
v -0.2 1.4 -0.1
v -0.1 1.4 -0.1
v 0.1 1.4 -0.1
v 0.2 1.4 -0.1
v -0.5 1.4 -0.4
v 0.5 1.4 -0.4
v 0.1 1.5 0
v 0.2 1.5 0
v 0.1 1.5 -0.1
v 0.2 1.5 -0.1
v -0.3 1.6 0
v -0.1 1.6 0
v -0.3 1.6 -0.1
v -0.1 1.6 -0.1

# faces
f 3/3/1 2/3/1 1/3/1
f 4/3/1 2/3/1 3/3/1
f 7/19/1 6/19/1 5/19/1
f 8/19/1 6/19/1 7/19/1
f 9/19/1 7/19/1 5/19/1
f 9/18/1 8/18/1 7/18/1
f 10/19/1 6/19/1 8/19/1
f 10/18/1 8/18/1 9/18/1
f 11/19/1 9/19/1 5/19/1
f 11/19/1 10/19/1 9/19/1
f 12/19/1 6/19/1 10/19/1
f 12/19/1 10/19/1 11/19/1
f 17/3/1 14/3/1 13/3/1
f 18/3/1 14/3/1 17/3/1
f 20/3/1 16/3/1 15/3/1
f 21/3/1 16/3/1 20/3/1
f 22/3/1 19/3/1 18/3/1
f 23/4/1 21/4/1 20/4/1
f 23/3/1 19/3/1 22/3/1
f 23/4/1 20/4/1 19/4/1
f 24/4/1 21/4/1 23/4/1
f 25/4/1 21/4/1 24/4/1
f 26/4/1 24/4/1 23/4/1
f 27/4/1 24/4/1 26/4/1
f 31/16/1 29/16/1 28/16/1
f 31/18/1 30/18/1 29/18/1
f 32/18/1 30/18/1 31/18/1
f 33/16/1 31/16/1 28/16/1
f 34/18/1 30/18/1 32/18/1
f 35/16/1 33/16/1 28/16/1
f 36/18/1 34/18/1 33/18/1
f 36/16/1 33/16/1 35/16/1
f 37/18/1 30/18/1 34/18/1
f 37/18/1 34/18/1 36/18/1
f 41/4/1 39/4/1 38/4/1
f 42/4/1 39/4/1 41/4/1
f 43/17/1 41/17/1 40/17/1
f 43/17/1 42/17/1 41/17/1
f 44/17/1 42/17/1 43/17/1
f 47/20/1 46/20/1 45/20/1
f 48/20/1 46/20/1 47/20/1
f 49/12/1 48/12/1 47/12/1
f 50/12/1 48/12/1 49/12/1
f 51/10/1 50/10/1 49/10/1
f 52/10/1 50/10/1 51/10/1
f 55/17/1 54/17/1 53/17/1
f 56/17/1 54/17/1 55/17/1
f 59/16/1 58/16/1 57/16/1
f 60/16/1 58/16/1 59/16/1
f 63/16/1 62/16/1 61/16/1
f 64/16/1 62/16/1 63/16/1
f 68/20/1 66/20/1 65/20/1
f 69/18/1 67/18/1 66/18/1
f 69/20/1 66/20/1 68/20/1
f 70/18/1 67/18/1 69/18/1
f 71/20/1 68/20/1 65/20/1
f 72/20/1 68/20/1 71/20/1
f 76/20/1 74/20/1 73/20/1
f 77/20/1 76/20/1 75/20/1
f 78/20/1 74/20/1 76/20/1
f 78/20/1 76/20/1 77/20/1
f 79/20/1 74/20/1 78/20/1
f 82/19/1 81/19/1 80/19/1
f 86/19/1 81/19/1 82/19/1
f 87/19/1 81/19/1 86/19/1
f 88/20/1 85/20/1 84/20/1
f 88/20/1 84/20/1 83/20/1
f 89/20/1 85/20/1 88/20/1
f 90/20/1 85/20/1 89/20/1
f 93/17/1 92/17/1 91/17/1
f 94/17/1 92/17/1 93/17/1
f 97/16/1 96/16/1 95/16/1
f 98/16/1 96/16/1 97/16/1
f 101/3/1 100/3/1 99/3/1
f 102/3/1 100/3/1 101/3/1
f 103/3/1 100/3/1 102/3/1
f 104/3/1 100/3/1 103/3/1
f 105/3/1 103/3/1 102/3/1
f 106/4/1 104/4/1 103/4/1
f 106/3/1 103/3/1 105/3/1
f 107/4/1 104/4/1 106/4/1
f 108/4/1 104/4/1 107/4/1
f 109/4/1 104/4/1 108/4/1
f 110/3/2 111/3/2 112/3/2
f 112/3/2 111/3/2 113/3/2
f 113/3/2 111/3/2 114/3/2
f 114/3/2 111/3/2 115/3/2
f 113/3/2 114/3/2 116/3/2
f 114/4/2 115/4/2 117/4/2
f 116/3/2 114/3/2 117/3/2
f 117/4/2 115/4/2 118/4/2
f 118/4/2 115/4/2 119/4/2
f 119/4/2 115/4/2 120/4/2
f 121/17/2 122/17/2 123/17/2
f 123/17/2 122/17/2 124/17/2
f 125/16/2 126/16/2 127/16/2
f 127/16/2 126/16/2 128/16/2
f 129/20/2 130/20/2 131/20/2
f 131/20/2 130/20/2 132/20/2
f 132/20/2 130/20/2 133/20/2
f 134/20/2 135/20/2 137/20/2
f 135/20/2 136/20/2 137/20/2
f 137/20/2 136/20/2 138/20/2
f 138/20/2 136/20/2 139/20/2
f 140/19/2 141/19/2 144/19/2
f 144/19/2 141/19/2 145/19/2
f 142/20/2 143/20/2 147/20/2
f 145/19/2 141/19/2 148/19/2
f 148/19/2 141/19/2 149/19/2
f 146/20/2 147/20/2 150/20/2
f 147/20/2 143/20/2 150/20/2
f 150/20/2 143/20/2 151/20/2
f 146/20/2 150/20/2 152/20/2
f 152/20/2 150/20/2 153/20/2
f 154/16/2 155/16/2 156/16/2
f 156/16/2 155/16/2 157/16/2
f 158/17/2 159/17/2 160/17/2
f 160/17/2 159/17/2 161/17/2
f 162/4/2 163/4/2 165/4/2
f 165/4/2 163/4/2 166/4/2
f 164/17/2 165/17/2 167/17/2
f 165/17/2 166/17/2 167/17/2
f 167/17/2 166/17/2 168/17/2
f 169/13/2 170/13/2 171/13/2
f 171/13/2 170/13/2 172/13/2
f 171/11/2 172/11/2 173/11/2
f 173/11/2 172/11/2 174/11/2
f 173/6/2 174/6/2 175/6/2
f 175/6/2 174/6/2 176/6/2
f 177/3/2 178/3/2 181/3/2
f 181/3/2 178/3/2 182/3/2
f 179/3/2 180/3/2 184/3/2
f 184/3/2 180/3/2 185/3/2
f 182/3/2 183/3/2 186/3/2
f 184/4/2 185/4/2 187/4/2
f 186/3/2 183/3/2 187/3/2
f 183/4/2 184/4/2 187/4/2
f 187/4/2 185/4/2 188/4/2
f 188/4/2 185/4/2 189/4/2
f 187/4/2 188/4/2 190/4/2
f 190/4/2 188/4/2 191/4/2
f 192/16/2 193/16/2 195/16/2
f 193/18/2 194/18/2 195/18/2
f 195/18/2 194/18/2 196/18/2
f 192/16/2 195/16/2 197/16/2
f 196/18/2 194/18/2 198/18/2
f 192/16/2 197/16/2 199/16/2
f 197/18/2 198/18/2 200/18/2
f 199/16/2 197/16/2 200/16/2
f 198/18/2 194/18/2 201/18/2
f 200/18/2 198/18/2 201/18/2
f 202/3/2 203/3/2 204/3/2
f 204/3/2 203/3/2 205/3/2
f 206/19/2 207/19/2 208/19/2
f 208/19/2 207/19/2 209/19/2
f 206/19/2 208/19/2 210/19/2
f 208/18/2 209/18/2 210/18/2
f 209/19/2 207/19/2 211/19/2
f 210/18/2 209/18/2 211/18/2
f 206/19/2 210/19/2 212/19/2
f 210/19/2 211/19/2 212/19/2
f 211/19/2 207/19/2 213/19/2
f 212/19/2 211/19/2 213/19/2
f 220/20/3 217/20/3 216/20/3
f 221/12/3 218/12/3 217/12/3
f 221/20/3 217/20/3 220/20/3
f 222/10/3 219/10/3 218/10/3
f 222/12/3 218/12/3 221/12/3
f 223/10/3 219/10/3 222/10/3
f 224/3/3 215/3/3 214/3/3
f 225/3/3 215/3/3 224/3/3
f 226/15/3 221/15/3 220/15/3
f 226/11/3 222/11/3 221/11/3
f 227/5/3 223/5/3 222/5/3
f 227/11/3 222/11/3 226/11/3
f 228/5/3 223/5/3 227/5/3
f 229/15/3 226/15/3 220/15/3
f 230/14/3 227/14/3 226/14/3
f 230/15/3 226/15/3 229/15/3
f 231/8/3 228/8/3 227/8/3
f 231/14/3 227/14/3 230/14/3
f 232/8/3 228/8/3 231/8/3
f 233/13/3 230/13/3 229/13/3
f 233/14/3 231/14/3 230/14/3
f 234/7/3 232/7/3 231/7/3
f 234/14/3 231/14/3 233/14/3
f 235/7/3 232/7/3 234/7/3
f 236/13/3 233/13/3 229/13/3
f 237/11/3 234/11/3 233/11/3
f 237/13/3 233/13/3 236/13/3
f 238/14/3 235/14/3 234/14/3
f 238/11/3 234/11/3 237/11/3
f 239/14/3 235/14/3 238/14/3
f 242/20/3 237/20/3 236/20/3
f 242/5/3 238/5/3 237/5/3
f 243/2/3 239/2/3 238/2/3
f 243/5/3 238/5/3 242/5/3
f 244/2/3 239/2/3 243/2/3
f 245/20/3 242/20/3 236/20/3
f 246/11/3 243/11/3 242/11/3
f 246/20/3 242/20/3 245/20/3
f 247/9/3 244/9/3 243/9/3
f 247/11/3 243/11/3 246/11/3
f 248/9/3 244/9/3 247/9/3
f 249/13/3 246/13/3 245/13/3
f 250/11/3 247/11/3 246/11/3
f 250/13/3 246/13/3 249/13/3
f 251/6/3 248/6/3 247/6/3
f 251/11/3 247/11/3 250/11/3
f 252/6/3 248/6/3 251/6/3
f 253/3/3 241/3/3 240/3/3
f 254/3/3 241/3/3 253/3/3
f 257/3/3 256/3/3 255/3/3
f 258/3/3 256/3/3 257/3/3
f 262/3/3 259/3/3 258/3/3
f 263/3/3 259/3/3 262/3/3
f 264/16/3 261/16/3 260/16/3
f 265/16/3 261/16/3 264/16/3
f 266/16/3 261/16/3 265/16/3
f 267/16/3 261/16/3 266/16/3
f 268/4/3 263/4/3 262/4/3
f 269/4/3 263/4/3 268/4/3
f 270/16/3 264/16/3 260/16/3
f 271/16/3 261/16/3 267/16/3
f 272/3/3 269/3/3 268/3/3
f 273/3/3 269/3/3 272/3/3
f 274/16/3 261/16/3 271/16/3
f 275/16/3 270/16/3 260/16/3
f 276/16/3 261/16/3 274/16/3
f 277/16/3 261/16/3 276/16/3
f 278/16/3 275/16/3 260/16/3
f 279/16/3 261/16/3 277/16/3
f 282/16/3 261/16/3 279/16/3
f 283/3/3 281/3/3 280/3/3
f 284/3/3 281/3/3 283/3/3
f 285/16/3 278/16/3 260/16/3
f 286/16/3 261/16/3 282/16/3
f 287/4/3 284/4/3 283/4/3
f 288/4/3 284/4/3 287/4/3
f 289/16/3 285/16/3 260/16/3
f 292/16/3 261/16/3 286/16/3
f 294/3/3 288/3/3 287/3/3
f 295/3/3 288/3/3 294/3/3
f 296/16/3 291/16/3 290/16/3
f 296/16/3 292/16/3 291/16/3
f 296/16/3 289/16/3 260/16/3
f 296/16/3 290/16/3 289/16/3
f 297/16/3 261/16/3 292/16/3
f 297/16/3 292/16/3 296/16/3
f 298/3/3 294/3/3 293/3/3
f 299/3/3 294/3/3 298/3/3
f 304/19/3 301/19/3 300/19/3
f 305/19/3 301/19/3 304/19/3
f 306/4/3 303/4/3 302/4/3
f 307/4/3 303/4/3 306/4/3
f 308/4/3 303/4/3 307/4/3
f 309/4/3 303/4/3 308/4/3
f 312/4/3 311/4/3 310/4/3
f 313/4/3 311/4/3 312/4/3
f 314/4/3 311/4/3 313/4/3
f 315/4/3 311/4/3 314/4/3
f 318/19/3 317/19/3 316/19/3
f 319/19/3 317/19/3 318/19/3
f 322/17/3 321/17/3 320/17/3
f 324/17/3 322/17/3 320/17/3
f 324/17/3 323/17/3 322/17/3
f 325/17/3 323/17/3 324/17/3
f 326/17/3 323/17/3 325/17/3
f 327/17/3 323/17/3 326/17/3
f 328/17/3 323/17/3 327/17/3
f 330/17/3 327/17/3 326/17/3
f 331/1/3 328/1/3 327/1/3
f 331/17/3 327/17/3 330/17/3
f 332/1/3 328/1/3 331/1/3
f 333/17/3 330/17/3 329/17/3
f 333/17/3 331/17/3 330/17/3
f 333/17/3 332/17/3 331/17/3
f 334/17/3 332/17/3 333/17/3
f 335/17/3 332/17/3 334/17/3
f 336/17/3 334/17/3 333/17/3
f 337/17/3 334/17/3 336/17/3
f 341/16/3 339/16/3 338/16/3
f 342/16/3 341/16/3 340/16/3
f 343/16/3 339/16/3 341/16/3
f 343/16/3 341/16/3 342/16/3
f 346/16/3 345/16/3 344/16/3
f 347/16/3 345/16/3 346/16/3
f 351/20/3 349/20/3 348/20/3
f 352/20/3 349/20/3 351/20/3
f 353/20/3 351/20/3 350/20/3
f 353/20/3 352/20/3 351/20/3
f 354/20/3 352/20/3 353/20/3
f 357/20/3 356/20/3 355/20/3
f 358/20/3 356/20/3 357/20/3
f 359/20/3 356/20/3 358/20/3
f 360/20/3 359/20/3 358/20/3
f 361/20/3 359/20/3 360/20/3
f 364/19/3 363/19/3 362/19/3
f 365/19/3 363/19/3 364/19/3
f 368/19/3 367/19/3 366/19/3
f 369/19/3 367/19/3 368/19/3
f 370/3/4 371/3/4 372/3/4
f 372/3/4 371/3/4 373/3/4
f 374/4/4 375/4/4 376/4/4
f 376/4/4 375/4/4 377/4/4
f 378/16/4 379/16/4 381/16/4
f 380/16/4 381/16/4 382/16/4
f 381/16/4 379/16/4 383/16/4
f 382/16/4 381/16/4 383/16/4
f 384/16/4 385/16/4 386/16/4
f 386/16/4 385/16/4 387/16/4
f 388/4/4 389/4/4 392/4/4
f 392/4/4 389/4/4 393/4/4
f 390/3/4 391/3/4 394/3/4
f 394/3/4 391/3/4 395/3/4
f 397/4/4 398/4/4 399/4/4
f 400/17/4 401/17/4 402/17/4
f 396/3/4 397/3/4 404/3/4
f 397/4/4 399/4/4 405/4/4
f 404/3/4 397/3/4 405/3/4
f 399/4/4 400/4/4 405/4/4
f 402/17/4 403/17/4 406/17/4
f 405/4/4 400/4/4 406/4/4
f 400/17/4 402/17/4 406/17/4
f 406/17/4 403/17/4 407/17/4
f 407/17/4 403/17/4 408/17/4
f 408/17/4 403/17/4 409/17/4
f 409/17/4 403/17/4 410/17/4
f 408/17/4 409/17/4 411/17/4
f 408/17/4 411/17/4 414/17/4
f 411/17/4 412/17/4 414/17/4
f 413/17/4 414/17/4 417/17/4
f 414/17/4 412/17/4 418/17/4
f 417/17/4 414/17/4 418/17/4
f 418/17/4 412/17/4 419/17/4
f 416/4/4 417/4/4 420/4/4
f 417/17/4 418/17/4 421/17/4
f 420/4/4 417/4/4 421/4/4
f 421/17/4 418/17/4 422/17/4
f 415/3/4 416/3/4 423/3/4
f 416/4/4 420/4/4 424/4/4
f 423/3/4 416/3/4 424/3/4
f 424/4/4 420/4/4 425/4/4
f 426/19/4 427/19/4 428/19/4
f 428/19/4 427/19/4 429/19/4
f 430/19/4 431/19/4 432/19/4
f 432/19/4 431/19/4 433/19/4
f 434/18/4 435/18/4 436/18/4
f 436/18/4 435/18/4 437/18/4
f 437/18/4 435/18/4 438/18/4
f 438/18/4 435/18/4 439/18/4
f 439/18/4 435/18/4 440/18/4
f 440/18/4 435/18/4 441/18/4
f 441/18/4 435/18/4 442/18/4
f 442/18/4 435/18/4 443/18/4
f 436/19/4 437/19/4 445/19/4
f 444/20/4 445/20/4 446/20/4
f 446/20/4 445/20/4 447/20/4
f 445/19/4 437/19/4 448/19/4
f 447/20/4 445/20/4 448/20/4
f 446/20/4 447/20/4 449/20/4
f 449/20/4 447/20/4 450/20/4
f 448/19/4 437/19/4 451/19/4
f 437/18/4 438/18/4 452/18/4
f 451/19/4 437/19/4 452/19/4
f 438/19/4 439/19/4 453/19/4
f 452/18/4 438/18/4 453/18/4
f 439/18/4 440/18/4 454/18/4
f 453/19/4 439/19/4 454/19/4
f 440/19/4 441/19/4 455/19/4
f 454/18/4 440/18/4 455/18/4
f 441/18/4 442/18/4 456/18/4
f 455/19/4 441/19/4 456/19/4
f 442/19/4 443/19/4 457/19/4
f 456/18/4 442/18/4 457/18/4
f 443/18/4 435/18/4 458/18/4
f 457/19/4 443/19/4 458/19/4
f 456/18/4 457/18/4 459/18/4
f 451/18/4 452/18/4 459/18/4
f 457/18/4 458/18/4 459/18/4
f 452/18/4 453/18/4 459/18/4
f 453/18/4 454/18/4 459/18/4
f 454/18/4 455/18/4 459/18/4
f 455/18/4 456/18/4 459/18/4
f 458/18/4 435/18/4 460/18/4
f 459/18/4 458/18/4 460/18/4
f 461/20/4 462/20/4 463/20/4
f 463/20/4 462/20/4 464/20/4
f 463/20/4 464/20/4 466/20/4
f 464/20/4 465/20/4 466/20/4
f 466/20/4 465/20/4 467/20/4
f 468/18/4 469/18/4 470/18/4
f 470/18/4 469/18/4 471/18/4
f 472/19/4 473/19/4 474/19/4
f 474/19/4 473/19/4 475/19/4
f 481/3/5 477/3/5 476/3/5
f 482/3/5 479/3/5 478/3/5
f 484/3/5 481/3/5 480/3/5
f 485/3/5 477/3/5 481/3/5
f 485/3/5 481/3/5 484/3/5
f 486/3/5 483/3/5 482/3/5
f 486/3/5 482/3/5 478/3/5
f 487/3/5 483/3/5 486/3/5
f 488/3/5 477/3/5 485/3/5
f 489/3/5 477/3/5 488/3/5
f 490/3/5 486/3/5 478/3/5
f 491/3/5 486/3/5 490/3/5
f 494/20/5 493/20/5 492/20/5
f 495/20/5 493/20/5 494/20/5
f 497/18/5 495/18/5 494/18/5
f 498/19/5 496/19/5 495/19/5
f 498/18/5 495/18/5 497/18/5
f 499/19/5 496/19/5 498/19/5
f 500/19/5 496/19/5 499/19/5
f 503/20/5 502/20/5 501/20/5
f 504/20/5 502/20/5 503/20/5
f 509/17/5 506/17/5 505/17/5
f 510/17/5 506/17/5 509/17/5
f 511/17/5 508/17/5 507/17/5
f 512/17/5 508/17/5 511/17/5
f 515/20/5 514/20/5 513/20/5
f 516/20/5 514/20/5 515/20/5
f 519/17/5 518/17/5 517/17/5
f 520/17/5 518/17/5 519/17/5
f 523/20/5 522/20/5 521/20/5
f 524/20/5 522/20/5 523/20/5
f 527/20/5 526/20/5 525/20/5
f 528/20/5 526/20/5 527/20/5
f 531/16/5 530/16/5 529/16/5
f 532/16/5 530/16/5 531/16/5
f 533/18/5 532/18/5 531/18/5
f 534/18/5 532/18/5 533/18/5
f 535/18/5 532/18/5 534/18/5
f 536/18/5 532/18/5 535/18/5
f 537/18/5 533/18/5 531/18/5
f 540/18/5 532/18/5 536/18/5
f 541/18/5 538/18/5 537/18/5
f 541/18/5 537/18/5 531/18/5
f 542/18/5 538/18/5 541/18/5
f 543/18/5 540/18/5 539/18/5
f 544/18/5 532/18/5 540/18/5
f 544/18/5 540/18/5 543/18/5
f 545/18/5 541/18/5 531/18/5
f 546/19/5 542/19/5 541/19/5
f 546/18/5 541/18/5 545/18/5
f 547/19/5 542/19/5 546/19/5
f 548/19/5 544/19/5 543/19/5
f 549/18/5 532/18/5 544/18/5
f 549/19/5 544/19/5 548/19/5
f 550/18/5 532/18/5 549/18/5
f 557/20/5 552/20/5 551/20/5
f 558/15/5 553/15/5 552/15/5
f 558/20/5 552/20/5 557/20/5
f 559/13/5 554/13/5 553/13/5
f 559/15/5 553/15/5 558/15/5
f 560/20/5 555/20/5 554/20/5
f 560/13/5 554/13/5 559/13/5
f 561/13/5 556/13/5 555/13/5
f 561/20/5 555/20/5 560/20/5
f 562/13/5 556/13/5 561/13/5
f 567/19/5 564/19/5 563/19/5
f 568/19/5 564/19/5 567/19/5
f 569/19/5 566/19/5 565/19/5
f 570/19/5 566/19/5 569/19/5
f 573/16/5 572/16/5 571/16/5
f 574/16/5 572/16/5 573/16/5
f 575/3/6 576/3/6 580/3/6
f 580/3/6 576/3/6 581/3/6
f 581/3/6 576/3/6 582/3/6
f 582/3/6 576/3/6 583/3/6
f 577/3/6 578/3/6 584/3/6
f 584/3/6 578/3/6 585/3/6
f 585/3/6 578/3/6 586/3/6
f 586/3/6 578/3/6 587/3/6
f 579/3/6 580/3/6 589/3/6
f 587/3/6 588/3/6 590/3/6
f 579/3/6 589/3/6 591/3/6
f 591/3/6 589/3/6 592/3/6
f 590/3/6 588/3/6 593/3/6
f 593/3/6 588/3/6 594/3/6
f 595/3/6 596/3/6 603/3/6
f 596/4/6 597/4/6 604/4/6
f 603/3/6 596/3/6 604/3/6
f 597/3/6 598/3/6 605/3/6
f 604/4/6 597/4/6 605/4/6
f 605/3/6 598/3/6 606/3/6
f 599/3/6 600/3/6 607/3/6
f 600/4/6 601/4/6 608/4/6
f 607/3/6 600/3/6 608/3/6
f 601/3/6 602/3/6 609/3/6
f 608/4/6 601/4/6 609/4/6
f 609/3/6 602/3/6 610/3/6
f 611/4/6 612/4/6 615/4/6
f 615/4/6 612/4/6 616/4/6
f 613/4/6 614/4/6 617/4/6
f 617/4/6 614/4/6 618/4/6
f 619/20/6 620/20/6 621/20/6
f 621/20/6 620/20/6 622/20/6
f 621/18/6 622/18/6 624/18/6
f 622/19/6 623/19/6 625/19/6
f 624/18/6 622/18/6 625/18/6
f 625/19/6 623/19/6 626/19/6
f 627/4/6 628/4/6 631/4/6
f 631/4/6 628/4/6 632/4/6
f 629/4/6 630/4/6 633/4/6
f 633/4/6 630/4/6 634/4/6
f 627/4/6 631/4/6 635/4/6
f 635/4/6 631/4/6 636/4/6
f 634/4/6 630/4/6 637/4/6
f 637/4/6 630/4/6 638/4/6
f 639/20/6 640/20/6 641/20/6
f 641/20/6 640/20/6 642/20/6
f 643/19/6 644/19/6 645/19/6
f 645/19/6 644/19/6 646/19/6
f 647/17/6 648/17/6 651/17/6
f 651/17/6 648/17/6 652/17/6
f 649/17/6 650/17/6 653/17/6
f 653/17/6 650/17/6 654/17/6
f 655/20/6 656/20/6 657/20/6
f 657/20/6 656/20/6 658/20/6
f 659/20/6 660/20/6 661/20/6
f 661/20/6 660/20/6 662/20/6
f 663/10/6 664/10/6 672/10/6
f 664/5/6 665/5/6 673/5/6
f 672/10/6 664/10/6 673/10/6
f 665/8/6 666/8/6 674/8/6
f 673/5/6 665/5/6 674/5/6
f 666/7/6 667/7/6 675/7/6
f 674/8/6 666/8/6 675/8/6
f 667/14/6 668/14/6 676/14/6
f 675/7/6 667/7/6 676/7/6
f 668/2/6 669/2/6 677/2/6
f 676/14/6 668/14/6 677/14/6
f 669/9/6 670/9/6 678/9/6
f 677/2/6 669/2/6 678/2/6
f 670/6/6 671/6/6 679/6/6
f 678/9/6 670/9/6 679/9/6
f 679/6/6 671/6/6 680/6/6
f 681/19/6 682/19/6 685/19/6
f 685/19/6 682/19/6 686/19/6
f 683/19/6 684/19/6 687/19/6
f 687/19/6 684/19/6 688/19/6
f 689/16/6 690/16/6 691/16/6
f 691/16/6 690/16/6 692/16/6
f 691/18/6 692/18/6 693/18/6
f 693/18/6 692/18/6 694/18/6
f 694/18/6 692/18/6 695/18/6
f 695/18/6 692/18/6 696/18/6
f 691/18/6 693/18/6 697/18/6
f 694/18/6 695/18/6 698/18/6
f 698/18/6 695/18/6 699/18/6
f 696/18/6 692/18/6 700/18/6
f 698/18/6 699/18/6 701/18/6
f 699/18/6 700/18/6 701/18/6
f 691/18/6 697/18/6 701/18/6
f 697/18/6 698/18/6 701/18/6
f 700/18/6 692/18/6 702/18/6
f 701/18/6 700/18/6 702/18/6
f 703/16/6 704/16/6 705/16/6
f 705/16/6 704/16/6 706/16/6
f 707/16/6 708/16/6 709/16/6
f 709/16/6 708/16/6 710/16/6
